<?xml version="1.0" standalone="no"?><!DOCTYPE svg PUBLIC "-//W3C//DTD SVG 1.1//EN" "http://www.w3.org/Graphics/SVG/1.1/DTD/svg11.dtd"><svg t="1596031625261" class="icon" viewBox="0 0 1024 1024" version="1.1" xmlns="http://www.w3.org/2000/svg" p-id="1180" xmlns:xlink="http://www.w3.org/1999/xlink" width="200" height="200"><defs><style type="text/css"></style></defs><path d="M937.8 893.9H88.2c-12.5 0-24.5-5-33.4-13.8C46 871.2 41 859.2 41 846.7V327.5c0-12.5 5-24.5 13.8-33.4 8.9-8.9 20.9-13.8 33.4-13.8h94.4c26.1 0 47.2 21.1 47.2 47.2s-21.1 47.2-47.2 47.2h-47.2v424.8h755.2V374.7h-47.2c-26.1 0-47.2-21.1-47.2-47.2s21.1-47.2 47.2-47.2h94.4c12.5 0 24.5 5 33.4 13.8C980 303 985 315 985 327.5v519.2c0 12.5-5 24.5-13.8 33.4-8.9 8.8-20.9 13.8-33.4 13.8z m-472-349.3V185.9c0-26.1 21.1-47.2 47.2-47.2s47.2 21.1 47.2 47.2v357.8l60.4-60.4c18.7-16 46.6-15 64.1 2.5 17.4 17.4 18.5 45.3 2.5 64.1L550.8 686.2c-8.9 11.9-22.9 18.9-37.8 18.9-12.5 0.1-24.6-4.9-33.5-13.7L337.9 549.8c-16-18.7-15-46.6 2.5-64.1 17.4-17.4 45.4-18.5 64.1-2.5l61.3 61.4z m0 0" fill="#1296DB" p-id="1181"></path></svg>